<svg xmlns="http://www.w3.org/2000/svg" width="32" height="32" viewBox="0 0 32 32" fill="none">
  <path d="M16 32C24.8366 32 32 24.8366 32 16C32 7.16344 24.8366 0 16 0C7.16344 0 0 7.16344 0 16C0 24.8366 7.16344 32 16 32Z" fill="#28A0F0"/>
  <path d="M21.6244 24.8236L13.4641 9.69092C13.3511 9.49279 13.1358 9.38372 12.9205 9.42825L9.6008 10.1374C9.3402 10.1819 9.16962 10.4228 9.21435 10.6637L11.5944 22.5236C11.6391 22.7645 11.8821 22.9291 12.1427 22.8845L15.4624 22.1754C15.5071 22.1754 15.5518 22.1754 15.5518 22.1754C15.5518 22.1754 15.5965 22.1754 15.6412 22.1754C15.6859 22.1754 15.7306 22.1309 15.7306 22.0863L17.0879 19.0947L20.0004 24.8236C20.1134 25.0217 20.3287 25.1308 20.544 25.0863L23.8637 24.3772C24.1243 24.3326 24.2949 24.0917 24.2502 23.8508L21.6244 24.8236ZM16.0438 18.6494L13.6084 13.1288L18.1099 21.9137L16.0438 18.6494Z" fill="white"/>
</svg>

