<svg xmlns="http://www.w3.org/2000/svg" width="24" height="24" viewBox="0 0 24 24" fill="none">
  <path d="M22.56 12.25C22.56 11.47 22.49 10.72 22.36 10H12V14.255H17.92C17.665 15.63 16.89 16.795 15.725 17.575V20.335H19.28C21.36 18.42 22.56 15.6 22.56 12.25Z" fill="#4285F4"/>
  <path d="M12 23C14.97 23 17.46 22.015 19.28 20.335L15.725 17.575C14.74 18.235 13.48 18.625 12 18.625C9.13504 18.625 6.71004 16.69 5.84504 14.09H2.17004V16.94C3.98004 20.535 7.70004 23 12 23Z" fill="#34A853"/>
  <path d="M5.84501 14.09C5.62501 13.43 5.50001 12.725 5.50001 12C5.50001 11.275 5.62501 10.57 5.84501 9.91V7.06H2.17001C1.40001 8.59333 0.999512 10.2733 0.999512 12C0.999512 13.7267 1.40001 15.4067 2.17001 16.94L5.84501 14.09Z" fill="#FBBC05"/>
  <path d="M12 5.375C13.615 5.375 15.065 5.93 16.205 7.02L19.36 3.865C17.455 2.09 14.965 1 12 1C7.70004 1 3.98004 3.465 2.17004 7.06L5.84504 9.91C6.71004 7.31 9.13504 5.375 12 5.375Z" fill="#EA4335"/>
</svg>

