<svg xmlns="http://www.w3.org/2000/svg" width="32" height="32" viewBox="0 0 32 32" fill="none">
  <path d="M16 32C24.8366 32 32 24.8366 32 16C32 7.16344 24.8366 0 16 0C7.16344 0 0 7.16344 0 16C0 24.8366 7.16344 32 16 32Z" fill="#8247E5"/>
  <path d="M21.0772 13.6501C20.6071 13.3729 19.9942 13.3729 19.4813 13.6501L16.5942 15.2602L14.5942 16.3159L11.7071 17.926C11.237 18.2032 10.6241 18.2032 10.1112 17.926L7.88404 16.6402C7.41394 16.363 7.07988 15.8631 7.07988 15.3074V12.7916C7.07988 12.2916 7.35992 11.7917 7.88404 11.5145L10.0684 10.2844C10.5385 10.0072 11.1514 10.0072 11.6643 10.2844L13.8486 11.5145C14.3187 11.7917 14.6528 12.2916 14.6528 12.8473V14.4574L16.6528 13.3459V11.7359C16.6528 11.2359 16.3728 10.736 15.8486 10.4588L11.7071 8.01733C11.237 7.74013 10.6241 7.74013 10.1112 8.01733L5.91266 10.4588C5.38853 10.736 5.10849 11.2359 5.10849 11.7359V16.363C5.10849 16.863 5.38853 17.3629 5.91266 17.6401L10.1112 20.0816C10.5813 20.3588 11.1942 20.3588 11.7071 20.0816L14.5942 18.5273L16.5942 17.4159L19.4813 15.8631C19.9514 15.5859 20.5643 15.5859 21.0772 15.8631L23.2615 17.0931C23.7316 17.3703 24.0656 17.8703 24.0656 18.426V20.9417C24.0656 21.4417 23.7856 21.9416 23.2615 22.2188L21.0772 23.4489C20.6071 23.7261 19.9942 23.7261 19.4813 23.4489L17.297 22.2188C16.8269 21.9416 16.4928 21.4417 16.4928 20.886V19.2759L14.4928 20.3874V21.9974C14.4928 22.4974 14.7728 22.9973 15.297 23.2745L19.4956 25.716C19.9656 25.9932 20.5785 25.9932 21.0914 25.716L25.29 23.2745C25.7601 22.9973 26.0941 22.4974 26.0941 21.9974V17.3703C26.0941 16.8703 25.8141 16.3704 25.29 16.0932L21.0772 13.6501Z" fill="white"/>
</svg>

