<svg xmlns="http://www.w3.org/2000/svg" width="32" height="32" viewBox="0 0 32 32" fill="none">
  <path d="M16 32C24.8366 32 32 24.8366 32 16C32 7.16344 24.8366 0 16 0C7.16344 0 0 7.16344 0 16C0 24.8366 7.16344 32 16 32Z" fill="#FF0420"/>
  <path d="M11.5 23.5C9.567 23.5 8 21.933 8 20V12C8 10.067 9.567 8.5 11.5 8.5C13.433 8.5 15 10.067 15 12V20C15 21.933 13.433 23.5 11.5 23.5ZM11.5 10.5C10.673 10.5 10 11.173 10 12V20C10 20.827 10.673 21.5 11.5 21.5C12.327 21.5 13 20.827 13 20V12C13 11.173 12.327 10.5 11.5 10.5Z" fill="white"/>
  <path d="M20.5 23.5C18.567 23.5 17 21.933 17 20V12C17 10.067 18.567 8.5 20.5 8.5C22.433 8.5 24 10.067 24 12V20C24 21.933 22.433 23.5 20.5 23.5ZM20.5 10.5C19.673 10.5 19 11.173 19 12V20C19 20.827 19.673 21.5 20.5 21.5C21.327 21.5 22 20.827 22 20V12C22 11.173 21.327 10.5 20.5 10.5Z" fill="white"/>
</svg>

